<?xml version="1.0" encoding="utf-8"?>
<!-- Generator: Adobe Illustrator 15.0.0, SVG Export Plug-In . SVG Version: 6.00 Build 0)  -->
<!DOCTYPE svg PUBLIC "-//W3C//DTD SVG 1.1//EN" "http://www.w3.org/Graphics/SVG/1.1/DTD/svg11.dtd">
<svg version="1.1" id="Layer_1" xmlns="http://www.w3.org/2000/svg" xmlns:xlink="http://www.w3.org/1999/xlink" x="0px" y="0px"
	 width="612px" height="792px" viewBox="0 0 612 792" enable-background="new 0 0 612 792" xml:space="preserve">
<path fill="#6D6E71" d="M132.156,346.679v-2.509c7.887,0,9.439-2.032,9.439-13.981v-5.975c0-11.95-1.553-13.862-9.439-13.862v-2.509
	l17.924-2.988v25.334c0,11.949,1.434,13.981,9.439,13.981v2.509H132.156z"/>
<path fill="#6D6E71" d="M213.531,330.188c0,12.666,0.836,13.981,7.527,13.981v2.509h-23.422v-2.509
	c6.574,0,7.531-1.315,7.531-13.981v-6.932c0-7.768-2.391-12.785-8.605-12.785c-4.182,0-12.309,4.54-12.309,11.949v7.768
	c0,12.428,0.836,13.981,7.41,13.981v2.509h-25.332v-2.509c7.887,0,9.438-2.032,9.438-13.981v-5.975
	c0-11.95-1.551-13.862-9.438-13.862v-2.509l15.891-2.988c0.598,1.195,1.672,6.095,2.031,8.604c3.227-4.062,8.605-8.604,15.535-8.604
	c7.289,0,10.994,3.466,12.668,8.963c2.746-3.943,9.68-8.963,16.729-8.963c10.635,0,13.742,7.648,13.742,17.806v7.528
	c0,11.949,1.553,13.981,9.439,13.981v2.509h-25.332v-2.509c6.57,0,7.408-1.315,7.408-13.981v-6.932
	c0-7.768-2.271-12.785-8.482-12.785c-4.066,0-12.43,4.54-12.43,11.949V330.188z"/>
<path fill="#6D6E71" d="M293.117,347.993c-4.66,0-7.527-2.628-8.127-6.93c-5.855,5.257-10.158,7.169-14.936,7.169
	c-5.855,0-10.756-3.705-10.756-10.038c0-10.157,11.83-14.578,25.451-16.969c0-8.962-1.195-12.547-8.004-12.547
	c-2.75,0-6.812,1.912-6.812,5.736c0,2.39-1.793,4.182-4.062,4.182c-2.391,0-4.182-1.792-4.182-4.182
	c0-5.736,7.527-9.561,15.174-9.561c11.594,0,16.371,4.9,16.371,16.252v18.045c0,2.986,0.957,4.66,2.75,4.66
	c1.195,0,2.508-0.957,3.348-1.793l1.672,2.271C298.732,346.679,295.746,347.993,293.117,347.993z M284.75,324.931
	c-11.35,2.629-16.488,6.572-16.488,11.83c0,3.823,2.629,6.094,5.617,6.094c2.508,0,5.375-0.836,10.871-5.734V324.931z"/>
<path fill="#6D6E71" d="M351.91,346.679v-2.509c8.004,0,9.439-2.032,9.439-13.981v-5.975c0-11.95-1.436-13.862-9.439-13.862v-2.509
	l17.924-2.988v25.334c0,11.949,1.553,13.981,9.439,13.981v2.509H351.91z"/>
<path fill="#6D6E71" d="M420.615,304.854c10.756,0,15.535,7.648,15.535,17.806v7.528c0,11.949,1.436,13.981,9.441,13.981v2.509
	h-27.363v-2.509c7.766,0,9.438-2.032,9.438-13.981v-6.932c0-7.768-2.746-12.785-9.918-12.785c-6.57,0-13.742,5.377-13.742,11.949
	v7.768c0,12.308,0.959,13.981,8.365,13.981v2.509h-26.287v-2.509c7.887,0,9.438-2.032,9.438-13.981v-5.975
	c0-11.95-1.551-13.862-9.438-13.862v-2.509l15.889-2.988c0.6,1.195,1.674,6.095,2.033,8.604
	C407.234,309.396,412.729,304.854,420.615,304.854z"/>
<path fill="#6D6E71" d="M478.691,343.69c3.943,0,9.678-2.269,13.143-5.496l2.154,2.629c-4.184,4.422-11.475,7.887-18.285,7.887
	c-13.145,0-22.105-9.918-22.105-21.987c0-12.666,10.992-21.868,22.105-21.868c10.637,0,19.121,8.604,16.252,18.882h-28.799
	C461.723,334.968,466.383,343.69,478.691,343.69z M483.709,319.313c1.316-3.824-0.715-9.678-8.604-9.678
	c-5.137,0-9.559,3.822-11.232,9.678H483.709z"/>
<path fill="#6D6E71" d="M363.621,280.478c-16.73-6.094-32.623,7.887-27.127,27.962c-3.107-2.509-5.975-3.585-10.756-3.585
	c-9.797,0-17.805,7.29-17.805,16.252c0,6.453,4.062,11.711,10.039,14.579c-6.215,1.912-10.039,5.257-10.039,9.56
	c0,7.17,7.17,10.156,16.969,11.113c10.039,0.955,16.014,2.748,16.014,8.364s-7.408,9.201-14.818,9.201
	c-9.441,0-21.152-5.377-11.234-16.491l-2.148-1.313c-14.699,7.648-6.812,22.465,13.383,22.465c11.711,0,21.152-6.094,21.152-16.013
	c0-7.289-5.258-14.339-21.75-15.652c-3.941-0.359-10.875-1.316-10.875-4.542s8.127-4.421,13.385-5.019
	c7.768-1.076,15.535-7.409,15.535-16.252c0-3.584-1.314-7.05-3.467-9.68c-6.93-26.408,15.773-33.221,20.195-23.541
	c1.316,2.868,2.629,4.661,5.139,4.661c2.629,0,4.779-2.271,4.779-4.78C370.191,283.465,365.412,281.075,363.621,280.478z
	 M325.738,333.415c-5.855,0-8.723-5.378-8.723-12.309c0-7.05,2.867-12.428,8.723-12.428s8.605,5.378,8.605,12.428
	C334.344,328.037,331.594,333.415,325.738,333.415z"/>
<g>
	<path fill="#BCBEC0" d="M363.451,376.705c-2.567,0-4.416-0.601-6.048-2.256l1.729-1.705c1.248,1.248,2.616,1.633,4.368,1.633
		c2.231,0,3.527-0.961,3.527-2.616c0-0.744-0.216-1.368-0.672-1.776c-0.432-0.408-0.864-0.576-1.872-0.72l-2.016-0.288
		c-1.393-0.191-2.496-0.672-3.24-1.368c-0.84-0.792-1.248-1.872-1.248-3.265c0-2.975,2.16-5.016,5.712-5.016
		c2.256,0,3.84,0.576,5.305,1.944l-1.656,1.632c-1.057-1.008-2.28-1.32-3.721-1.32c-2.016,0-3.119,1.152-3.119,2.664
		c0,0.625,0.191,1.176,0.647,1.584c0.433,0.385,1.128,0.672,1.92,0.793l1.944,0.287c1.584,0.24,2.472,0.625,3.192,1.272
		c0.936,0.815,1.392,2.04,1.392,3.504C369.596,374.832,367.027,376.705,363.451,376.705z"/>
	<path fill="#BCBEC0" d="M379.676,376.705c-1.776,0-3.312-0.648-4.488-1.824c-1.68-1.68-1.655-3.576-1.655-6.864
		s-0.024-5.185,1.655-6.864c1.177-1.176,2.712-1.824,4.488-1.824c3.145,0,5.496,1.848,6.096,5.256h-2.64
		c-0.408-1.728-1.56-2.928-3.456-2.928c-1.008,0-1.92,0.385-2.52,1.032c-0.841,0.912-1.032,1.896-1.032,5.328
		s0.191,4.416,1.032,5.328c0.6,0.647,1.512,1.032,2.52,1.032c1.896,0,3.072-1.2,3.48-2.928h2.615
		C385.196,374.856,382.771,376.705,379.676,376.705z"/>
	<path fill="#BCBEC0" d="M390.308,376.561v-17.088h2.592v17.088H390.308z"/>
	<path fill="#BCBEC0" d="M398.924,376.561v-17.088h10.92v2.328h-8.328v4.992h7.104v2.304h-7.104v5.136h8.328v2.328H398.924z"/>
	<path fill="#BCBEC0" d="M425.562,376.561l-7.896-12.023v12.023h-2.592v-17.088h2.376l7.896,12v-12h2.592v17.088H425.562z"/>
	<path fill="#BCBEC0" d="M439.123,376.705c-1.776,0-3.312-0.648-4.488-1.824c-1.68-1.68-1.655-3.576-1.655-6.864
		s-0.024-5.185,1.655-6.864c1.177-1.176,2.712-1.824,4.488-1.824c3.145,0,5.496,1.848,6.096,5.256h-2.64
		c-0.408-1.728-1.56-2.928-3.456-2.928c-1.008,0-1.92,0.385-2.52,1.032c-0.841,0.912-1.032,1.896-1.032,5.328
		s0.191,4.416,1.032,5.328c0.6,0.647,1.512,1.032,2.52,1.032c1.896,0,3.072-1.2,3.48-2.928h2.615
		C444.644,374.856,442.219,376.705,439.123,376.705z"/>
	<path fill="#BCBEC0" d="M449.875,376.561v-17.088h10.92v2.328h-8.328v4.992h7.104v2.304h-7.104v5.136h8.328v2.328H449.875z"/>
	<path fill="#BCBEC0" d="M475.099,361.801v5.207h7.104v2.328h-7.104v7.225h-2.592v-17.088h10.92v2.328H475.099z"/>
	<path fill="#BCBEC0" d="M487.746,376.561v-17.088h2.592v17.088H487.746z"/>
	<path fill="#BCBEC0" d="M496.362,376.561v-17.088h2.592v14.76h8.231v2.328H496.362z"/>
	<path fill="#BCBEC0" d="M523.577,376.561v-11.424l-3.936,8.328h-1.92l-4.032-8.328v11.424h-2.592v-17.088h2.592l4.992,10.632
		l4.896-10.632h2.592v17.088H523.577z"/>
	<path fill="#BCBEC0" d="M536.345,376.705c-2.567,0-4.416-0.601-6.048-2.256l1.729-1.705c1.248,1.248,2.616,1.633,4.368,1.633
		c2.231,0,3.527-0.961,3.527-2.616c0-0.744-0.216-1.368-0.672-1.776c-0.432-0.408-0.864-0.576-1.872-0.72l-2.016-0.288
		c-1.393-0.191-2.496-0.672-3.24-1.368c-0.84-0.792-1.248-1.872-1.248-3.265c0-2.975,2.16-5.016,5.712-5.016
		c2.256,0,3.84,0.576,5.305,1.944l-1.656,1.632c-1.057-1.008-2.28-1.32-3.72-1.32c-2.017,0-3.12,1.152-3.12,2.664
		c0,0.625,0.191,1.176,0.647,1.584c0.433,0.385,1.128,0.672,1.92,0.793l1.944,0.287c1.584,0.24,2.472,0.625,3.192,1.272
		c0.936,0.815,1.392,2.04,1.392,3.504C542.489,374.832,539.921,376.705,536.345,376.705z"/>
</g>
<path fill="#6D6E71" d="M140.845,279.238l-4.301-2.79c0.513-0.583,0.543-1.484,0.011-2.118c-0.561-0.668-1.586-0.759-2.256-0.196
	c-0.669,0.561-0.759,1.586-0.197,2.257c0.532,0.633,1.425,0.759,2.086,0.355l2.002,4.72l-12.186,10.228
	c1.306,0.926,2.742,1.709,4.319,2.283c9.465,3.446,19.932-1.436,23.377-10.901c1.74-4.776,1.352-9.807-0.67-14.062L140.845,279.238z
	"/>
<g opacity="0.4">
	<path fill="#6D6E71" d="M102.061,258.958c-4.863-5.217-4.561-13.615,0.869-18.68c5.214-4.862,13.614-4.577,18.478,0.638"/>
</g>
<path opacity="0.9" fill="#6D6E71" d="M127.235,273.723c-1.945-2.085-1.826-5.446,0.345-7.472c2.087-1.945,5.446-1.828,7.391,0.258"
	/>
<path opacity="0.75" fill="#6D6E71" d="M107.915,258.87c-3.475-3.727-3.265-9.727,0.617-13.347
	c3.729-3.477,9.729-3.269,13.204,0.458"/>
<path opacity="0.9" fill="#6D6E71" d="M112.236,257.869c-1.944-2.084-1.827-5.446,0.346-7.472c2.086-1.945,5.447-1.827,7.391,0.257"
	/>
<path opacity="0.75" fill="#6D6E71" d="M122.099,274.823c-3.474-3.726-3.267-9.727,0.615-13.348
	c3.728-3.477,9.731-3.266,13.205,0.459"/>
</svg>
